<?xml version="1.0" standalone="no"?>
<!DOCTYPE svg PUBLIC "-//W3C//DTD SVG 20010904//EN"
 "http://www.w3.org/TR/2001/REC-SVG-20010904/DTD/svg10.dtd">
<svg version="1.0" xmlns="http://www.w3.org/2000/svg"
 width="834.000000pt" height="831.000000pt" viewBox="0 0 834.000000 831.000000"
 preserveAspectRatio="xMidYMid meet">
<metadata>
Created by potrace 1.16, written by Peter Selinger 2001-2019
</metadata>
<g transform="translate(0.000000,831.000000) scale(0.100000,-0.100000)"
fill="#000000" stroke="none">
<path d="M3930 8293 c-397 -27 -711 -87 -1060 -203 -641 -213 -1180 -549
-1657 -1031 -589 -597 -971 -1322 -1127 -2139 -99 -517 -97 -1038 4 -1571 78
-408 243 -853 449 -1215 465 -813 1160 -1433 2011 -1794 276 -117 620 -217
930 -270 394 -67 940 -69 1345 -5 580 92 1132 304 1618 621 617 403 1114 953
1440 1597 115 225 165 344 252 602 91 270 150 563 181 905 19 217 15 588 -11
810 -70 616 -254 1160 -570 1685 -278 463 -673 894 -1122 1221 -628 459 -1367
729 -2143 784 -132 9 -429 11 -540 3z m-335 -978 c55 -13 161 -38 235 -55 74
-17 191 -44 260 -60 69 -16 159 -36 200 -45 41 -9 185 -41 320 -72 135 -31
292 -66 350 -78 58 -12 123 -27 146 -34 22 -6 65 -15 95 -21 54 -10 169 -35
409 -91 69 -15 202 -45 295 -64 94 -20 181 -41 195 -48 19 -9 60 -82 172 -307
81 -162 148 -297 148 -300 0 -3 39 -79 86 -170 47 -91 87 -169 88 -175 1 -5
33 -71 71 -145 70 -137 97 -191 100 -200 0 -3 14 -30 30 -60 16 -30 132 -262
259 -515 257 -512 255 -507 209 -611 -11 -27 -36 -85 -53 -129 -18 -44 -75
-173 -127 -287 -51 -114 -97 -218 -102 -230 -5 -13 -30 -68 -56 -123 -26 -55
-53 -113 -60 -130 -8 -16 -53 -115 -100 -220 -48 -104 -107 -235 -130 -290
-24 -55 -62 -140 -85 -190 -23 -49 -55 -119 -70 -155 -15 -36 -86 -197 -159
-357 -72 -161 -131 -296 -131 -299 0 -4 -12 -26 -27 -50 -28 -44 -62 -65 -138
-83 -22 -5 -94 -23 -160 -40 -66 -17 -226 -58 -355 -91 -129 -33 -266 -69
-305 -79 -38 -11 -135 -36 -215 -56 -80 -20 -166 -43 -191 -51 -26 -7 -134
-36 -240 -63 -107 -28 -264 -68 -349 -91 -85 -23 -195 -52 -245 -65 -49 -13
-153 -40 -230 -60 -203 -54 -264 -65 -306 -59 -38 6 -115 62 -555 401 -88 68
-197 152 -244 187 -47 35 -110 85 -140 109 -30 24 -93 73 -140 109 -47 35
-110 83 -140 107 -68 52 -252 193 -430 328 -74 56 -182 139 -240 184 -58 45
-121 93 -140 108 -76 56 -208 172 -214 187 -3 9 -6 651 -6 1427 0 1609 -11
1436 96 1510 34 23 106 76 160 117 55 42 180 137 279 212 99 75 227 173 285
217 58 45 227 173 375 286 149 113 338 257 420 320 83 64 184 141 225 172 41
31 117 91 169 132 51 42 121 95 155 118 74 52 107 54 251 18z"/>
<path d="M3533 7093 c3 -10 13 -83 22 -163 9 -80 27 -228 41 -330 13 -102 29
-230 34 -285 6 -55 17 -147 26 -205 8 -58 21 -163 29 -235 7 -71 23 -204 34
-295 11 -91 25 -201 30 -245 6 -44 19 -150 30 -235 11 -85 29 -229 40 -320 12
-91 32 -257 47 -370 14 -113 28 -228 31 -257 l6 -52 536 -529 c295 -291 759
-750 1031 -1020 l495 -490 8 117 c4 64 6 774 5 1579 l-3 1463 -41 34 c-42 35
-344 268 -508 393 -49 37 -123 94 -165 128 -42 33 -131 103 -199 155 -68 51
-181 138 -250 192 -70 54 -161 123 -202 155 -41 31 -136 104 -210 162 -74 59
-161 126 -194 151 -32 24 -73 55 -91 69 -18 14 -77 59 -131 100 -55 41 -130
99 -169 130 -173 139 -287 221 -282 203z"/>
<path d="M3332 7010 c-34 -27 -66 -50 -71 -50 -5 0 -11 -4 -13 -8 -3 -8 -189
-151 -383 -295 -44 -33 -92 -71 -107 -85 -16 -14 -28 -22 -28 -17 0 5 -6 1
-12 -8 -7 -10 -54 -48 -105 -85 -51 -37 -156 -116 -234 -177 -78 -60 -163
-126 -188 -145 -25 -20 -145 -111 -266 -203 -121 -92 -290 -220 -375 -285
l-155 -118 -3 -1282 c-1 -705 0 -1282 2 -1282 3 0 67 30 143 66 76 37 179 86
228 109 50 24 158 75 240 115 83 40 213 103 290 140 77 37 201 97 275 133 74
35 221 106 325 157 105 51 235 114 290 140 55 26 199 96 320 155 121 59 231
111 244 116 20 8 22 14 17 42 -3 17 -12 97 -21 177 -8 80 -19 179 -25 220 -6
41 -21 165 -35 275 -13 110 -38 308 -55 440 -17 132 -37 299 -46 370 -8 72
-28 236 -44 365 -17 129 -35 276 -41 325 -5 50 -19 158 -29 240 -11 83 -27
215 -35 295 -19 173 -25 210 -34 210 -4 0 -35 -22 -69 -50z"/>
<path d="M3836 7042 c12 -9 86 -66 165 -126 79 -60 173 -133 209 -161 81 -64
171 -133 370 -286 145 -111 289 -221 574 -442 65 -51 181 -139 256 -197 203
-155 373 -287 475 -368 l90 -72 3 581 c1 387 -1 586 -8 594 -11 14 -27 18
-230 64 -74 16 -175 40 -225 51 -102 25 -188 44 -390 88 -141 31 -163 35 -400
90 -236 55 -348 80 -495 112 -80 17 -199 44 -265 61 -141 34 -159 36 -129 11z"/>
<path d="M6100 5799 l0 -495 28 -26 c15 -14 72 -59 127 -101 101 -76 260 -201
499 -390 159 -126 164 -129 143 -91 -9 16 -37 74 -63 129 -68 146 -704 1426
-720 1450 -12 17 -14 -53 -14 -476z"/>
<path d="M6101 3653 l1 -1468 20 45 c43 96 132 299 165 375 19 44 42 98 53
120 10 22 48 108 85 190 126 284 228 510 303 675 41 91 81 181 89 200 16 36
23 53 105 235 27 61 55 124 62 140 8 17 31 68 51 115 l38 84 -75 71 c-41 38
-112 97 -157 130 -155 112 -420 314 -631 480 -52 41 -98 75 -102 75 -5 0 -8
-660 -7 -1467z"/>
<path d="M3770 3965 c-25 -13 -101 -51 -170 -83 -69 -33 -215 -104 -325 -157
-110 -54 -236 -114 -280 -135 -44 -21 -163 -78 -265 -127 -356 -174 -516 -251
-635 -308 -126 -60 -378 -182 -554 -268 -63 -30 -99 -53 -90 -56 8 -3 41 -27
74 -53 33 -26 96 -74 140 -107 44 -33 136 -104 205 -157 119 -91 314 -240 529
-404 54 -41 136 -104 182 -140 175 -135 238 -184 384 -295 83 -63 209 -160
280 -216 72 -55 153 -118 181 -140 l50 -39 210 54 c230 59 635 164 784 203
138 36 208 54 470 122 129 33 350 91 490 127 140 37 291 75 335 85 44 10 97
24 118 31 l38 14 -756 749 c-1072 1061 -1339 1325 -1345 1325 -3 0 -25 -11
-50 -25z"/>
</g>
</svg>
